<svg width="4325" height="1872" viewBox="0 0 4325 1872" fill="none" xmlns="http://www.w3.org/2000/svg">
<g clip-path="url(#clip0_30_2)">
<path d="M1621.25 1119V1050.8L1847.85 781.85L1861.05 820.35H1626.2V734H1957.85V802.2L1731.25 1071.15L1718.05 1032.65H1966.1V1119H1621.25ZM2163.43 1123.95C2128.23 1123.95 2097.43 1117.35 2071.03 1104.15C2045 1090.58 2024.65 1072.25 2009.98 1049.15C1995.68 1025.68 1988.53 999.1 1988.53 969.4C1988.53 939.7 1995.5 913.3 2009.43 890.2C2023.73 866.733 2043.35 848.583 2068.28 835.75C2093.21 822.55 2121.26 815.95 2152.43 815.95C2181.76 815.95 2208.53 822 2232.73 834.1C2256.93 845.833 2276.18 863.25 2290.48 886.35C2304.78 909.45 2311.93 937.5 2311.93 970.5C2311.93 974.167 2311.75 978.383 2311.38 983.15C2311.01 987.917 2310.65 992.317 2310.28 996.35H2074.33V941.35H2254.73L2215.13 956.75C2215.5 943.183 2212.93 931.45 2207.43 921.55C2202.3 911.65 2194.96 903.95 2185.43 898.45C2176.26 892.95 2165.45 890.2 2152.98 890.2C2140.51 890.2 2129.51 892.95 2119.98 898.45C2110.81 903.95 2103.66 911.833 2098.53 922.1C2093.4 932 2090.83 943.733 2090.83 957.3V973.25C2090.83 987.917 2093.76 1000.57 2099.63 1011.2C2105.86 1021.83 2114.66 1030.08 2126.03 1035.95C2137.4 1041.45 2150.96 1044.2 2166.73 1044.2C2181.4 1044.2 2193.86 1042.18 2204.13 1038.15C2214.76 1033.75 2225.21 1027.15 2235.48 1018.35L2290.48 1075.55C2276.18 1091.32 2258.58 1103.42 2237.68 1111.85C2216.78 1119.92 2192.03 1123.95 2163.43 1123.95ZM2360.11 1119V820.9H2459.66V905.6L2440.41 880.85C2451.78 859.217 2467.36 843.083 2487.16 832.45C2506.96 821.45 2529.33 815.95 2554.26 815.95C2577.36 815.95 2598.26 820.717 2616.96 830.25C2635.66 839.417 2650.33 853.717 2660.96 873.15C2671.96 892.583 2677.46 917.7 2677.46 948.5V1119H2572.96V965.55C2572.96 944.283 2568.56 928.883 2559.76 919.35C2551.33 909.45 2539.41 904.5 2524.01 904.5C2513.01 904.5 2502.93 907.067 2493.76 912.2C2484.59 916.967 2477.44 924.483 2472.31 934.75C2467.18 945.017 2464.61 958.4 2464.61 974.9V1119H2360.11Z" fill="#FAF8F2"/>
<path d="M2748.02 1119V734H2924.02C2959.22 734 2989.47 739.683 3014.77 751.05C3040.44 762.417 3060.24 778.917 3074.17 800.55C3088.1 821.817 3095.07 847.117 3095.07 876.45C3095.07 905.417 3088.1 930.533 3074.17 951.8C3060.24 973.067 3040.44 989.567 3014.77 1001.3C2989.47 1012.67 2959.22 1018.35 2924.02 1018.35H2808.52L2856.92 971.05V1119H2748.02ZM2856.92 982.6L2808.52 932.55H2917.42C2940.15 932.55 2957.02 927.6 2968.02 917.7C2979.39 907.8 2985.07 894.05 2985.07 876.45C2985.07 858.483 2979.39 844.55 2968.02 834.65C2957.02 824.75 2940.15 819.8 2917.42 819.8H2808.52L2856.92 769.75V982.6ZM3347.69 1126.7C3316.89 1126.7 3288.47 1121.75 3262.44 1111.85C3236.4 1101.95 3213.67 1088.02 3194.24 1070.05C3175.17 1051.72 3160.32 1030.45 3149.69 1006.25C3139.05 982.05 3133.74 955.467 3133.74 926.5C3133.74 897.533 3139.05 870.95 3149.69 846.75C3160.32 822.55 3175.17 801.467 3194.24 783.5C3213.67 765.167 3236.4 751.05 3262.44 741.15C3288.47 731.25 3316.89 726.3 3347.69 726.3C3378.85 726.3 3407.27 731.25 3432.94 741.15C3458.97 751.05 3481.52 765.167 3500.59 783.5C3519.65 801.467 3534.5 822.55 3545.14 846.75C3556.14 870.95 3561.64 897.533 3561.64 926.5C3561.64 955.467 3556.14 982.233 3545.14 1006.8C3534.5 1031 3519.65 1052.08 3500.59 1070.05C3481.52 1088.02 3458.97 1101.95 3432.94 1111.85C3407.27 1121.75 3378.85 1126.7 3347.69 1126.7ZM3347.69 1036.5C3362.35 1036.5 3375.92 1033.93 3388.39 1028.8C3401.22 1023.67 3412.22 1016.33 3421.39 1006.8C3430.92 996.9 3438.25 985.167 3443.39 971.6C3448.89 958.033 3451.64 943 3451.64 926.5C3451.64 909.633 3448.89 894.6 3443.39 881.4C3438.25 867.833 3430.92 856.283 3421.39 846.75C3412.22 836.85 3401.22 829.333 3388.39 824.2C3375.92 819.067 3362.35 816.5 3347.69 816.5C3333.02 816.5 3319.27 819.067 3306.44 824.2C3293.97 829.333 3282.97 836.85 3273.44 846.75C3264.27 856.283 3256.94 867.833 3251.44 881.4C3246.3 894.6 3243.74 909.633 3243.74 926.5C3243.74 943 3246.3 958.033 3251.44 971.6C3256.94 985.167 3264.27 996.9 3273.44 1006.8C3282.97 1016.33 3293.97 1023.67 3306.44 1028.8C3319.27 1033.93 3333.02 1036.5 3347.69 1036.5ZM3753.97 1126.7C3722.44 1126.7 3692.01 1122.85 3662.67 1115.15C3633.71 1107.08 3610.06 1096.82 3591.72 1084.35L3627.47 1004.05C3644.71 1015.05 3664.51 1024.22 3686.87 1031.55C3709.61 1038.52 3732.16 1042 3754.52 1042C3769.56 1042 3781.66 1040.72 3790.82 1038.15C3799.99 1035.22 3806.59 1031.55 3810.62 1027.15C3815.02 1022.38 3817.22 1016.88 3817.22 1010.65C3817.22 1001.85 3813.19 994.883 3805.12 989.75C3797.06 984.617 3786.61 980.4 3773.77 977.1C3760.94 973.8 3746.64 970.5 3730.87 967.2C3715.47 963.9 3699.89 959.683 3684.12 954.55C3668.72 949.417 3654.61 942.817 3641.77 934.75C3628.94 926.317 3618.49 915.5 3610.42 902.3C3602.36 888.733 3598.32 871.683 3598.32 851.15C3598.32 828.05 3604.56 807.15 3617.02 788.45C3629.86 769.75 3648.92 754.717 3674.22 743.35C3699.52 731.983 3731.06 726.3 3768.82 726.3C3794.12 726.3 3818.87 729.233 3843.07 735.1C3867.64 740.6 3889.46 748.85 3908.52 759.85L3874.97 840.7C3856.64 830.8 3838.49 823.467 3820.52 818.7C3802.56 813.567 3785.14 811 3768.27 811C3753.24 811 3741.14 812.65 3731.97 815.95C3722.81 818.883 3716.21 822.917 3712.17 828.05C3708.14 833.183 3706.12 839.05 3706.12 845.65C3706.12 854.083 3709.97 860.867 3717.67 866C3725.74 870.767 3736.19 874.8 3749.02 878.1C3762.22 881.033 3776.52 884.15 3791.92 887.45C3807.69 890.75 3823.27 894.967 3838.67 900.1C3854.44 904.867 3868.74 911.467 3881.57 919.9C3894.41 927.967 3904.67 938.783 3912.37 952.35C3920.44 965.55 3924.47 982.233 3924.47 1002.4C3924.47 1024.77 3918.06 1045.48 3905.22 1064.55C3892.76 1083.25 3873.87 1098.28 3848.57 1109.65C3823.64 1121.02 3792.11 1126.7 3753.97 1126.7Z" fill="#07A66B"/>
<path d="M519 752.881L523.448 784.045L550.134 804.079L1050.51 806.305L1070.52 812.983L1083.87 824.113L1092.76 841.921V855.277L1081.64 879.762L885.941 1109.04L888.165 1135.75L910.403 1149.11H1048.28L1070.52 1144.65L1083.87 1135.75L1352.96 824.113L1364.08 795.175V764.011L1355.18 739.525L1297.36 650.486L1259.55 626H623.522L592.388 648.26L519 752.881Z" fill="#07A66B"/>
<path d="M1375.67 1245.88L1371 1214.75L1344.18 1194.91L843.8 1196.22L823.738 1189.68L810.317 1178.65L801.296 1160.91L801.201 1147.55L812.148 1122.99L1006.23 892.331L1003.81 865.635L981.481 852.437L843.604 853.412L821.397 858.021L808.117 867.019L541.234 1180.55L530.319 1209.57L530.539 1240.73L539.607 1265.15L598.055 1353.78L636.033 1378L1272.05 1373.5L1303.02 1351.02L1375.67 1245.88Z" fill="#07A66B"/>
<path d="M1136.02 1352.31C1136.02 1349.73 1136.63 1347.18 1137.81 1344.86C1138.99 1342.54 1140.7 1340.5 1142.83 1338.91C1175.27 1314.6 1200.31 1292.05 1217.06 1260.97C1232.53 1232.21 1240.57 1196.11 1242.01 1148.33L1153.5 1148.45C1150.04 1148.45 1146.65 1147.47 1143.75 1145.65C1140.86 1143.82 1138.59 1141.22 1137.22 1138.18C1135.85 1135.13 1135.45 1131.77 1136.05 1128.51C1136.66 1125.24 1138.24 1122.22 1140.62 1119.81L1326.79 932.712C1328.44 931.049 1330.43 929.725 1332.64 928.819C1334.84 927.913 1337.22 927.445 1339.62 927.441C1342.02 927.438 1344.39 927.901 1346.6 928.801C1348.81 929.701 1350.8 931.02 1352.46 932.678L1539.12 1119.27C1541.51 1121.68 1543.11 1124.7 1543.72 1127.96C1544.33 1131.22 1543.93 1134.59 1542.57 1137.64C1541.21 1140.69 1538.95 1143.29 1536.06 1145.12C1533.17 1146.95 1529.79 1147.94 1526.32 1147.95L1437.16 1148.07C1433.48 1226.79 1389.43 1316.7 1332.93 1353.9C1286.14 1384.72 1236.4 1373.34 1153.8 1369.27C1149.09 1369.27 1144.57 1367.49 1141.24 1364.31C1137.9 1361.13 1136.03 1356.81 1136.02 1352.31Z" fill="#07A66B"/>
</g>
<defs>
<clipPath id="clip0_30_2">
<rect width="4325" height="1872" fill="white"/>
</clipPath>
</defs>
</svg>